<?xml version="1.0" standalone="no"?>
<!DOCTYPE svg PUBLIC "-//W3C//DTD SVG 20010904//EN"
 "http://www.w3.org/TR/2001/REC-SVG-20010904/DTD/svg10.dtd">
<svg version="1.0" xmlns="http://www.w3.org/2000/svg"
 width="512.000000pt" height="512.000000pt" viewBox="0 0 512.000000 512.000000"
 preserveAspectRatio="xMidYMid meet">
<metadata>
Created by potrace 1.16, written by Peter Selinger 2001-2019
</metadata>
<g transform="translate(0.000000,512.000000) scale(0.100000,-0.100000)"
fill="#ffffff" stroke="none">
<path d="M3007 4185 l-28 -25 -733 0 c-813 0 -779 3 -894 -67 -131 -80 -258
-219 -298 -328 -18 -46 -19 -83 -17 -504 l3 -455 27 -45 c17 -27 44 -53 69
-66 l41 -22 -46 -34 c-26 -20 -58 -56 -73 -84 l-28 -50 0 -407 c0 -266 3 -408
10 -408 6 0 10 136 10 388 0 223 4 402 10 422 12 42 46 91 86 122 25 20 42 23
129 26 129 3 138 6 185 48 l40 36 0 -81 0 -81 -75 0 -75 0 0 30 c0 20 -5 30
-15 30 -10 0 -15 -10 -15 -30 0 -22 -4 -28 -15 -24 -8 4 -15 15 -15 25 0 10
-4 19 -10 19 -5 0 -10 -11 -10 -25 0 -22 -4 -25 -37 -25 -50 0 -82 -18 -110
-59 l-23 -34 0 -581 c0 -634 1 -644 58 -750 43 -80 158 -188 248 -233 l78 -38
335 -3 c185 -1 346 -4 358 -7 12 -3 46 -30 76 -60 l54 -55 356 0 c196 0 367 4
380 9 13 5 51 31 83 58 l59 48 246 5 246 5 86 43 c156 77 278 227 307 377 8
40 10 168 8 390 -3 366 -4 368 -71 403 -70 38 -77 52 -77 157 l0 95 29 0 c34
0 85 39 106 81 22 42 22 1264 0 1358 -31 130 -109 239 -228 318 -123 83 -150
88 -457 88 l-265 0 -45 -26 c-25 -15 -68 -50 -96 -78 l-51 -50 -639 -3 -639
-3 -60 -29 c-44 -21 -85 -55 -153 -125 -52 -53 -108 -116 -125 -141 l-32 -45
-3 -405 c-1 -269 1 -400 8 -390 6 9 10 162 10 395 1 339 3 383 18 412 9 17 61
79 115 137 78 84 111 111 165 138 l66 33 216 3 c202 2 216 1 240 -18 l25 -20
-186 0 c-205 0 -266 -8 -346 -45 -104 -47 -228 -192 -274 -320 -21 -57 -22
-74 -20 -397 3 -329 2 -337 -18 -357 -37 -37 -98 -18 -140 43 l-29 42 -3 395
-3 394 26 72 c49 138 149 247 283 310 l60 28 751 5 c799 5 769 3 795 52 13 23
10 23 -24 -7z m668 -40 c181 -47 333 -203 365 -374 6 -32 10 -302 10 -678 l0
-625 -29 -29 c-33 -33 -85 -40 -95 -13 -3 9 -6 282 -6 608 0 567 -1 595 -20
651 -28 81 -71 144 -145 213 -74 70 -147 107 -236 121 -35 6 -176 11 -313 11
l-249 0 19 21 c34 38 95 82 132 95 56 20 488 19 567 -1z m-785 -152 c-22 -16
-61 -18 -375 -22 -342 -3 -351 -3 -375 18 l-25 20 400 1 c383 0 398 -1 375
-17z m742 -36 c100 -49 176 -125 225 -225 l38 -76 6 -610 c3 -336 3 -617 1
-623 -3 -9 -31 -13 -93 -13 l-89 0 0 238 0 238 45 44 45 44 0 348 c0 274 -3
356 -14 381 -24 55 -109 161 -136 167 -99 25 -135 -104 -41 -148 49 -23 91
-105 91 -176 l-1 -51 -41 50 c-94 113 -195 203 -270 239 -138 66 -144 66 -962
66 -719 0 -736 0 -791 -21 -61 -23 -149 -97 -196 -165 -61 -89 -63 -100 -69
-451 -5 -305 -6 -323 -26 -349 -35 -47 -72 -69 -114 -68 -45 2 -84 23 -101 56
l-12 23 24 -21 c69 -61 145 -58 181 9 8 15 14 125 19 327 6 264 10 313 27 367
27 84 70 150 148 223 94 87 127 101 261 111 62 4 117 10 123 14 7 4 10 17 8
29 l-4 21 810 -3 c758 -3 813 -4 848 -21 21 -10 35 -14 31 -9 -3 6 -24 19 -47
29 -37 17 -69 19 -340 19 -269 0 -297 2 -286 16 12 13 53 15 320 12 l306 -3
76 -38z m-2511 -144 l-26 -68 0 -430 c0 -416 1 -431 21 -465 11 -19 36 -45 55
-58 28 -20 44 -23 91 -20 93 7 165 72 187 168 6 25 11 169 11 321 l0 276 30
60 c35 70 101 135 168 166 47 22 54 22 737 25 l691 3 99 -49 c126 -62 212
-127 269 -203 55 -73 66 -107 73 -226 l6 -93 -40 0 -40 0 -6 80 c-13 194 -168
370 -361 410 -36 7 -222 10 -577 8 l-524 -3 -65 -31 c-73 -35 -136 -92 -181
-162 -37 -58 -96 -245 -108 -341 -5 -39 -15 -79 -23 -88 -10 -12 -14 -78 -18
-267 l-5 -251 -32 -3 -33 -3 0 438 0 439 26 53 c39 78 125 165 198 201 87 43
162 48 691 46 248 -1 497 1 555 5 58 3 -173 7 -513 7 -694 2 -677 4 -786 -69
-62 -41 -127 -114 -165 -184 -20 -38 -21 -56 -26 -379 l-5 -338 -79 -51 c-77
-50 -82 -51 -150 -51 -87 1 -134 20 -172 70 l-29 37 -7 216 c-4 119 -6 324 -5
456 3 202 6 248 21 289 17 46 61 126 70 126 2 0 -8 -30 -23 -67z m2579 -4 c14
-20 39 -53 55 -74 l30 -38 3 -361 3 -361 -36 -35 -35 -34 0 359 0 358 -26 45
-26 44 21 19 c12 11 21 24 21 30 0 6 -7 3 -16 -5 -16 -17 -50 -21 -79 -10 -28
11 -38 53 -20 81 24 37 72 29 105 -18z m-416 -3 c103 -30 177 -75 259 -155 44
-42 99 -102 123 -134 l44 -59 -1 -246 c-1 -136 -4 -373 -8 -526 -6 -266 -7
-279 -23 -262 -16 16 -18 46 -18 347 0 184 -5 361 -11 401 -29 194 -87 360
-155 441 -49 59 -57 50 -12 -14 61 -86 72 -109 103 -218 l27 -93 2 -430 1
-430 28 -24 c27 -23 34 -24 175 -24 112 0 154 4 176 15 41 21 45 10 6 -14 -28
-17 -52 -20 -177 -20 -132 -1 -148 0 -180 20 l-35 22 11 -22 c15 -27 10 -113
-6 -118 -10 -4 -13 85 -13 389 -1 419 -6 506 -33 536 -12 13 -17 37 -17 83 0
85 -17 173 -42 223 -27 54 -120 149 -190 198 -32 21 -95 57 -140 78 l-82 40
-588 0 c-407 0 -588 3 -588 11 0 7 197 9 653 6 586 -3 658 -5 711 -21z m-124
-168 c80 -40 151 -107 190 -180 33 -60 35 -69 38 -180 4 -112 3 -118 -16 -118
-18 0 -20 9 -24 103 -4 80 -10 114 -27 149 -29 60 -107 133 -179 166 l-57 27
-523 3 c-301 2 -553 -1 -593 -7 -59 -8 -79 -16 -126 -52 l-57 -42 27 34 c32
43 73 74 140 105 l52 24 550 -2 550 -3 55 -27z m-87 -82 c57 -21 100 -58 132
-117 28 -51 30 -61 33 -193 l4 -139 128 5 c85 4 132 2 139 -5 13 -13 14 -1341
1 -1422 -4 -29 -8 114 -9 343 -1 266 -4 391 -11 387 -7 -4 -10 -138 -8 -398 3
-428 4 -423 -55 -486 -28 -30 -29 -33 -7 -19 14 8 35 30 48 48 12 18 22 29 22
24 0 -5 -17 -34 -37 -64 -52 -78 -178 -200 -243 -235 l-55 -30 -554 -3 c-305
-1 -553 -1 -550 1 2 3 103 7 224 11 121 4 229 9 240 11 11 2 92 7 179 10 88 3
169 8 180 10 48 11 86 16 169 25 205 20 360 159 396 354 7 39 11 287 11 729 0
631 1 668 18 665 15 -3 18 -23 22 -188 l6 -185 -1 195 0 195 -127 3 -127 3 -3
-618 -3 -618 -28 -57 c-32 -65 -90 -122 -154 -150 -43 -19 -67 -20 -500 -19
-305 0 -466 4 -491 12 -57 17 -127 73 -159 126 l-28 48 -3 775 c-2 520 0 787
7 811 14 48 81 122 133 148 42 21 54 21 533 21 383 -1 498 -4 528 -14z m461
-379 c9 -7 21 -30 26 -52 11 -48 13 -1058 3 -1276 -6 -110 -9 49 -13 552 -5
767 -3 739 -61 739 -24 0 -29 4 -29 25 0 21 5 25 28 25 16 0 36 -6 46 -13z
m-144 -712 c0 -502 -2 -605 -14 -605 -11 0 -14 71 -20 383 -3 210 -9 477 -12
593 -4 117 -4 217 0 223 4 6 16 11 27 11 19 0 19 -13 19 -605z m-1690 323 c0
-151 -5 -293 -11 -318 -5 -25 -31 -88 -56 -140 -46 -94 -47 -97 -54 -225 -11
-194 -10 -382 1 -454 13 -77 48 -148 103 -209 23 -25 35 -42 27 -36 -8 5 -18
9 -22 9 -19 0 -69 61 -95 113 l-28 57 0 331 0 331 55 104 55 104 3 298 c2 209
0 297 -8 297 -7 0 -10 -85 -8 -285 2 -157 0 -285 -4 -285 -5 0 -8 131 -8 290
l0 290 25 0 25 0 0 -272z m-200 -32 c0 -11 -95 -79 -121 -86 -39 -11 -36 -8
43 46 58 40 78 50 78 40z m-230 -851 c0 -525 2 -631 15 -660 16 -40 98 -130
168 -186 38 -30 58 -39 87 -39 21 0 42 5 46 11 5 9 -1 10 -19 5 -16 -4 -41 0
-59 8 -41 17 -193 171 -207 209 -7 19 -11 240 -11 653 0 548 2 624 15 624 13
0 15 -70 15 -567 0 -529 2 -571 19 -608 19 -44 174 -195 251 -246 93 -62 54
-60 1106 -57 l959 3 73 39 c85 45 158 120 199 204 28 57 28 57 31 295 l3 237
-30 30 c-29 29 -32 30 -124 30 -128 0 -140 9 -145 114 -5 99 -22 99 -22 0 0
-69 2 -78 28 -103 25 -26 35 -28 131 -34 80 -4 107 -9 120 -23 9 -10 10 -14 2
-9 -7 4 -61 8 -120 9 -174 2 -192 25 -199 247 -4 140 -3 147 16 153 22 7 35
54 26 92 -6 23 -5 24 19 13 l26 -12 3 -168 c3 -163 4 -168 28 -194 34 -37 66
-51 130 -59 119 -15 133 -47 140 -306 4 -164 7 -195 20 -195 13 0 15 28 14
195 -1 184 -3 199 -28 264 -17 47 -40 85 -70 115 -24 26 -49 56 -55 68 -7 14
-11 72 -10 153 2 129 2 130 25 130 24 0 24 -2 24 -99 0 -111 12 -137 76 -167
19 -9 39 -25 44 -35 6 -10 11 -175 13 -391 l2 -373 -37 -77 c-50 -105 -145
-201 -253 -254 l-79 -39 -475 -8 c-262 -5 -495 -5 -519 -2 -50 7 -112 64 -112
102 0 12 -4 23 -10 23 -17 0 -11 -44 12 -80 12 -19 22 -38 23 -42 0 -3 4 -10
9 -15 5 -5 6 -3 2 5 -9 15 -1 15 27 0 15 -9 98 -15 271 -18 l249 -5 -58 -45
-58 -45 -361 -3 -361 -3 -54 56 c-29 30 -63 57 -75 60 -11 3 -169 6 -351 8
-314 2 -333 4 -385 25 -103 42 -231 157 -280 252 -50 98 -51 106 -48 729 l3
583 28 24 c21 18 40 24 73 24 l44 0 0 -625z m230 541 c0 -47 -6 -101 -14 -124
-12 -32 -15 -125 -17 -449 -2 -392 -2 -410 18 -460 42 -106 123 -191 231 -241
l57 -27 735 -3 c404 -1 744 0 756 2 60 15 393 312 443 396 18 30 21 51 21 158
l0 122 39 0 39 0 7 -146 c4 -80 5 -166 2 -190 -6 -55 -31 -84 -171 -195 l-98
-79 -65 0 c-78 0 -103 -12 -171 -84 l-54 -57 -776 3 -777 3 -59 28 c-102 47
-279 214 -296 278 -8 29 -9 202 -4 595 l7 554 74 0 73 0 0 -84z m78 74 c22 0
13 -53 -19 -115 -17 -33 -34 -63 -38 -67 -3 -4 -5 38 -3 93 3 98 4 101 25 95
12 -3 28 -6 35 -6z m230 -22 c30 -30 3 -82 -40 -76 -29 4 -47 50 -28 72 15 19
51 21 68 4z m-131 -155 c1 -10 -11 -27 -25 -38 -27 -19 -27 -19 -12 0 8 11 20
23 25 27 6 4 6 8 2 8 -5 0 -5 5 -2 10 9 14 11 13 12 -7z m2063 -151 c0 -81 4
-162 9 -180 11 -35 -2 -44 -19 -13 -13 26 -14 341 0 341 6 0 10 -56 10 -148z
m89 117 c6 -18 11 -83 11 -146 l0 -115 58 -61 c70 -75 100 -114 60 -79 -17 16
-49 28 -94 35 -38 7 -75 16 -81 20 -10 6 -13 56 -13 193 l0 184 24 0 c18 0 27
-8 35 -31z m-2327 -321 c-3 -278 -1 -334 11 -343 8 -6 18 -26 22 -45 13 -62
59 -143 115 -204 30 -33 48 -56 40 -51 -8 5 -3 -7 11 -26 15 -18 48 -45 75
-59 l48 -25 671 0 670 0 55 27 c121 60 243 187 313 327 40 80 42 88 45 190 2
58 5 112 7 119 3 8 18 -2 40 -27 20 -21 47 -42 60 -45 25 -6 25 -7 25 -130 0
-120 -1 -124 -29 -162 -47 -64 -260 -266 -340 -322 l-75 -52 -722 0 c-817 0
-791 -2 -899 79 -65 49 -95 88 -131 166 l-28 60 0 400 c-1 338 3 455 17 455 1
0 1 -150 -1 -332z m163 -80 c-3 -205 -8 -374 -10 -377 -3 -2 -15 18 -27 45
-22 47 -23 63 -26 329 -2 154 -1 289 2 301 7 26 44 74 57 74 6 0 8 -135 4
-372z m1709 -67 c24 -27 30 -80 17 -157 -20 -111 -75 -199 -159 -252 -26 -16
-58 -33 -72 -37 l-25 -8 29 29 c70 70 110 135 120 195 1 8 7 24 14 36 18 33
42 132 42 175 0 42 9 47 34 19z m506 -87 c0 -48 3 -65 13 -62 7 3 13 28 15 66
2 34 8 62 13 62 7 0 8 -67 4 -207 -6 -166 -11 -218 -26 -259 -28 -75 -75 -141
-134 -185 -83 -62 -119 -72 -300 -76 l-160 -5 44 45 c43 45 44 45 120 48 58 3
83 9 106 25 26 19 32 20 43 7 8 -8 24 -13 35 -11 18 2 22 10 22 40 0 32 8 44
80 111 l80 74 -1 197 0 196 23 0 c22 0 23 -4 23 -66z m-333 -86 c-3 -8 -6 -5
-6 6 -1 11 2 17 5 13 3 -3 4 -12 1 -19z m-679 -180 c7 -7 12 -36 12 -66 0 -29
5 -62 10 -73 13 -23 7 -25 -14 -3 -11 10 -16 34 -16 75 l0 59 -191 0 -191 0
-71 -66 c-73 -68 -107 -92 -107 -76 0 5 24 28 53 50 28 22 68 57 86 76 l35 36
191 0 c135 0 195 -4 203 -12z m-855 -235 c-13 -2 -33 -2 -45 0 -13 2 -3 4 22
4 25 0 35 -2 23 -4z"/>
<path d="M2745 3311 c-47 -28 -80 -73 -115 -157 -40 -97 -36 -146 17 -204 38
-43 53 -50 128 -59 l50 -6 3 -90 c4 -131 18 -125 -283 -125 -208 0 -246 2
-259 16 -14 13 -16 48 -16 227 0 195 2 214 20 242 31 47 26 91 -14 131 -28 28
-42 34 -76 34 -57 0 -100 -42 -100 -97 0 -44 23 -72 81 -101 19 -10 36 -28 40
-42 4 -14 7 -102 8 -195 1 -139 -2 -175 -15 -193 -20 -29 -64 -29 -92 1 -21
22 -22 33 -24 238 -2 189 -3 200 -8 94 l-6 -120 -4 185 -4 185 -6 -205 c-4
-113 -6 -263 -5 -335 2 -71 3 -256 4 -410 l1 -281 27 -41 c27 -42 94 -88 116
-80 7 3 5 6 -5 6 -23 1 -85 57 -106 95 -14 27 -16 65 -13 301 3 303 3 305 71
305 69 0 70 -6 70 -276 0 -256 6 -297 48 -353 51 -65 76 -71 355 -71 l247 0 0
530 c0 334 4 530 10 530 16 0 80 61 96 91 7 15 14 52 14 82 0 99 -72 167 -177
167 -29 0 -60 -7 -78 -19z m-503 -48 c37 -33 13 -95 -37 -95 -16 0 -34 7 -42
18 -42 58 26 125 79 77z m643 -48 c46 -45 24 -115 -41 -131 -68 -17 -115 90
-58 135 35 28 69 27 99 -4z m-67 -607 c9 -9 12 -78 12 -250 0 -217 -2 -242
-19 -277 -22 -42 -80 -97 -118 -112 -13 -5 -89 -9 -167 -9 -132 0 -146 2 -177
23 -18 12 -44 38 -56 56 -23 33 -23 40 -23 301 0 147 3 270 7 273 3 4 124 7
268 7 190 0 264 -3 273 -12z"/>
<path d="M2290 2333 c0 -177 2 -201 19 -227 39 -59 62 -66 214 -66 l137 0 38
34 37 34 3 197 c2 141 0 201 -9 211 -9 11 -52 14 -225 14 l-214 0 0 -197z
m353 105 c33 -13 34 -19 42 -175 6 -121 6 -123 -19 -148 -24 -24 -31 -25 -141
-25 -182 0 -195 14 -195 209 0 165 -4 162 158 155 70 -3 139 -10 155 -16z"/>
<path d="M1880 1202 c0 -5 14 -12 31 -16 39 -8 871 -6 1074 3 l150 6 -115 6
c-191 11 -1140 12 -1140 1z"/>
</g>
</svg>